<mxfile host="app.diagrams.net" agent="Mozilla/5.0 (Windows NT 10.0; Win64; x64) AppleWebKit/537.36 (KHTML, like Gecko) Chrome/129.0.0.0 Safari/537.36" version="24.7.16">
  <diagram name="Page-1" id="gIHGDeHwqoSKlzGalIjc">
    <mxGraphModel dx="794" dy="412" grid="1" gridSize="10" guides="1" tooltips="1" connect="1" arrows="1" fold="1" page="1" pageScale="1" pageWidth="827" pageHeight="1169" math="0" shadow="0">
      <root>
        <mxCell id="0" />
        <mxCell id="1" parent="0" />
        <mxCell id="lABFYKXU82TZk-qSGURz-5" value="" style="edgeStyle=orthogonalEdgeStyle;rounded=0;orthogonalLoop=1;jettySize=auto;html=1;" edge="1" parent="1" source="lABFYKXU82TZk-qSGURz-3" target="lABFYKXU82TZk-qSGURz-4">
          <mxGeometry relative="1" as="geometry" />
        </mxCell>
        <mxCell id="lABFYKXU82TZk-qSGURz-3" value="Inicio" style="ellipse;whiteSpace=wrap;html=1;aspect=fixed;" vertex="1" parent="1">
          <mxGeometry x="370" y="180" width="80" height="80" as="geometry" />
        </mxCell>
        <mxCell id="lABFYKXU82TZk-qSGURz-7" value="" style="edgeStyle=orthogonalEdgeStyle;rounded=0;orthogonalLoop=1;jettySize=auto;html=1;" edge="1" parent="1" source="lABFYKXU82TZk-qSGURz-4" target="lABFYKXU82TZk-qSGURz-6">
          <mxGeometry relative="1" as="geometry" />
        </mxCell>
        <mxCell id="lABFYKXU82TZk-qSGURz-4" value="Leer Altura, diametro" style="whiteSpace=wrap;html=1;" vertex="1" parent="1">
          <mxGeometry x="350" y="300" width="120" height="60" as="geometry" />
        </mxCell>
        <mxCell id="lABFYKXU82TZk-qSGURz-9" value="" style="edgeStyle=orthogonalEdgeStyle;rounded=0;orthogonalLoop=1;jettySize=auto;html=1;" edge="1" parent="1" source="lABFYKXU82TZk-qSGURz-6" target="lABFYKXU82TZk-qSGURz-8">
          <mxGeometry relative="1" as="geometry" />
        </mxCell>
        <mxCell id="lABFYKXU82TZk-qSGURz-6" value="radio =&amp;nbsp; diametro/2" style="whiteSpace=wrap;html=1;" vertex="1" parent="1">
          <mxGeometry x="350" y="400" width="120" height="60" as="geometry" />
        </mxCell>
        <mxCell id="lABFYKXU82TZk-qSGURz-11" value="" style="edgeStyle=orthogonalEdgeStyle;rounded=0;orthogonalLoop=1;jettySize=auto;html=1;" edge="1" parent="1" source="lABFYKXU82TZk-qSGURz-8" target="lABFYKXU82TZk-qSGURz-10">
          <mxGeometry relative="1" as="geometry" />
        </mxCell>
        <mxCell id="lABFYKXU82TZk-qSGURz-8" value="area = 3.1416 * radio * Altura" style="whiteSpace=wrap;html=1;" vertex="1" parent="1">
          <mxGeometry x="350" y="500" width="120" height="60" as="geometry" />
        </mxCell>
        <mxCell id="lABFYKXU82TZk-qSGURz-13" value="" style="edgeStyle=orthogonalEdgeStyle;rounded=0;orthogonalLoop=1;jettySize=auto;html=1;" edge="1" parent="1" source="lABFYKXU82TZk-qSGURz-10">
          <mxGeometry relative="1" as="geometry">
            <mxPoint x="410" y="720" as="targetPoint" />
          </mxGeometry>
        </mxCell>
        <mxCell id="lABFYKXU82TZk-qSGURz-10" value="mostrar area&amp;nbsp;" style="whiteSpace=wrap;html=1;" vertex="1" parent="1">
          <mxGeometry x="350" y="610" width="120" height="60" as="geometry" />
        </mxCell>
        <mxCell id="lABFYKXU82TZk-qSGURz-14" value="fin" style="ellipse;whiteSpace=wrap;html=1;aspect=fixed;" vertex="1" parent="1">
          <mxGeometry x="370" y="720" width="80" height="80" as="geometry" />
        </mxCell>
      </root>
    </mxGraphModel>
  </diagram>
</mxfile>
